<svg xmlns="http://www.w3.org/2000/svg" viewBox="0 0 64 64">
  <!-- Outer glow/border for visibility -->
  <circle cx="32" cy="32" r="31" fill="none" stroke="#ffffff" stroke-width="2" opacity="0.9"/>

  <!-- Background circle -->
  <circle cx="32" cy="32" r="29" fill="#0a0a0a"/>

  <!-- Face base -->
  <rect x="18" y="22" width="28" height="26" rx="3" fill="#d4d4d4"/>

  <!-- Hair -->
  <path d="M18 28 Q18 18 32 16 Q46 18 46 28 L46 24 Q46 14 32 12 Q18 14 18 24 Z" fill="#1a1a1a"/>
  <path d="M16 26 Q14 20 20 16 Q18 22 18 28 Z" fill="#1a1a1a"/>
  <path d="M48 26 Q50 20 44 16 Q46 22 46 28 Z" fill="#1a1a1a"/>

  <!-- Glasses frames -->
  <rect x="20" y="28" width="10" height="8" rx="2" fill="none" stroke="#1a1a1a" stroke-width="2"/>
  <rect x="34" y="28" width="10" height="8" rx="2" fill="none" stroke="#1a1a1a" stroke-width="2"/>
  <line x1="30" y1="32" x2="34" y2="32" stroke="#1a1a1a" stroke-width="2"/>

  <!-- Eyes -->
  <circle cx="25" cy="32" r="2" fill="#1a1a1a"/>
  <circle cx="39" cy="32" r="2" fill="#1a1a1a"/>

  <!-- Smile -->
  <path d="M26 40 Q32 44 38 40" fill="none" stroke="#1a1a1a" stroke-width="2" stroke-linecap="round"/>

  <!-- Neck/shirt hint -->
  <rect x="26" y="46" width="12" height="6" fill="#1a1a1a"/>
</svg>